# AST/ASF file generated using VICON BodyLanguage
# -----------------------------------------------
:version 1.10
:name VICON
:units
  mass 1.0
  length 0.45
  angle deg
:documentation
   .ast/.asf automatically generated from VICON data using
   VICON BodyBuilder and BodyLanguage model FoxedUp or BRILLIANT.MOD
:root
   order TX TY TZ RX RY RZ
   axis XYZ
   position 0 0 0  
   orientation 0 0 0 
:bonedata
  begin
     id 1 
     name lhipjoint
     direction 0.576517 -0.752066 0.319413 
     length 2.45433 
     axis 0 0 0  XYZ
  end
  begin
     id 2 
     name lfemur
     direction 0.34202 -0.939693 0  
     length 7.54459  
     axis 0 0 20  XYZ
    dof rx ry rz
    limits (-160.0 20.0)
           (-70.0 70.0)
           (-60.0 70.0)
  end
  begin
     id 3 
     name ltibia
     direction 0.34202 -0.939693 0   
     length 7.73986   
     axis 0 0 20   XYZ
    dof rx
    limits (-10.0 170.0)
  end
  begin
     id 4 
     name lfoot
     direction 0.090693 -0.249177 0.964202   
     length 2.28437   
     axis -90 7.62852e-016 20   XYZ
    dof rx rz
    limits (-45.0 90.0)
           (-70.0 20.0)
  end
  begin
     id 5 
     name ltoes
     direction 1.5356e-011 -4.21928e-011 1   
     length 1.14243   
     axis -90 7.62852e-016 20   XYZ
    dof rx
    limits (-90.0 20.0)
  end
  begin
     id 6 
     name rhipjoint
     direction -0.573937 -0.753736 0.320122   
     length 2.44889  
     axis 0 0 0  XYZ 
  end
  begin
     id 7 
     name rfemur
     direction -0.34202 -0.939693 0   
     length 7.50166   
     axis 0 0 -20   XYZ
    dof rx ry rz
    limits (-160.0 20.0)
           (-70.0 70.0)
           (-70.0 60.0)
  end
  begin
     id 8 
     name rtibia
     direction -0.34202 -0.939693 0   
     length 7.54266   
     axis 0 0 -20   XYZ
    dof rx
    limits (-10.0 170.0)
 end
 begin
     id 9 
     name rfoot
     direction -0.114017 -0.31326 0.942798   
     length 2.34212  
     axis -90 -7.62852e-016 -20   XYZ
    dof rx rz
    limits (-45.0 90.0)
           (-20.0 70.0)
  end
  begin
     id 10 
     name rtoes
     direction -1.53557e-011 -4.21867e-011 1   
     length 1.16246   
     axis -90 -7.62852e-016 -20   XYZ
    dof rx
    limits (-90.0 20.0)
  end
  begin
     id 11 
     name lowerback
     direction -0.0228371 0.999155 -0.034167   
     length 2.0537   
     axis 0 0 0   XYZ
    dof rx ry rz
    limits (-20.0 45.0)
           (-30.0 30.0)
           (-30.0 30.0)
  end
  begin
     id 12 
     name upperback
     direction 0.0198981 0.999794 0.00389455   
     length 2.05302   
     axis 0 0 0   XYZ
    dof rx ry rz
    limits (-20.0 45.0)
           (-30.0 30.0)
           (-30.0 30.0)
  end
  begin
     id 13 
     name thorax
     direction 0.0304566 0.99935 0.0192987   
     length 2.05315   
     axis 0 0 0   XYZ
    dof rx ry rz
    limits (-20.0 45.0)
           (-30.0 30.0)
           (-30.0 30.0)
  end
  begin
     id 14 
     name lowerneck
     direction -0.0196762 0.99417 0.106017   
     length 1.82056   
     axis 0 0 0   XYZ
    dof rx ry rz
    limits (-20.0 45.0)
           (-30.0 30.0)
           (-30.0 30.0)
  end
  begin
     id 15 
     name upperneck
     direction 0.00517787 0.9802 -0.197944   
     length 1.83835   
     axis 0 0 0   XYZ
    dof rx ry rz
    limits (-20.0 45.0)
           (-30.0 30.0)
           (-30.0 30.0)
  end
  begin
     id 16
     name head
     direction 0.00211419 0.996945 -0.078081  
     length 1.85629  
     axis 0 0 0   XYZ
    dof rx ry rz
    limits (-20.0 45.0)
           (-30.0 30.0)
           (-30.0 30.0)
  end
  begin
     id 17 
     name lclavicle
     direction 0.930001 0.365811 -0.0357824  
     length 3.81961  
     axis 0 0 0   XYZ
    dof ry rz
    limits (-20.0 10.0)
           (0.0 20.0)
  end
  begin
     id 18 
     name lhumerus
     direction 1 -4.48968e-011 -3.06644e-027   
     length 5.14507   
     axis 180 -30 -90   XYZ
    dof rx ry rz
    limits (-60.0 90.0)
           (-90.0 90.0)
           (-90.0 90.0)
  end
  begin
     id 19
     name lradius
     direction 1 -4.48965e-011 9.06925e-028   
     length 3.50646   
     axis 180 -30 -90   XYZ
    dof rx
    limits (-10.0 170.0)
  end
  begin
     id 20
     name lwrist
     direction 1 -4.48957e-011 1.03922e-027   
     length 1.75323   
     axis -2.56395e-016 90 90   XYZ
    dof ry
    limits (-180.0 0.0)
 end
  begin
     id 21 
     name lhand
     direction 1 -4.48967e-011 2.08017e-027   
     length 0.629969   
     axis -1.32723e-015 90 90   XYZ
    dof rx rz
    limits (-90.0 90.0)
           (-45.0 45.0)
  end
  begin
     id 22 
     name lfingers
     direction 1 -4.49089e-011 4.20095e-027   
     length 0.507897   
     axis -2.6545e-015 90 90   XYZ
    dof rx
    limits (0.0 90.0)
  end
  begin
     id 23
     name lthumb
     direction 0.707107 -6.35001e-011 0.707107   
     length 0.729241   
     axis -90 45 5.05613e-014   XYZ
    dof rx rz
    limits (-45.0 45.0)
           (-45.0 45.0)
  end
  begin
     id 24 
     name rclavicle
     direction -0.881882 0.464123 -0.0829113   
     length 3.47515  
     axis 0 0 0   XYZ 
    dof ry rz
    limits (-10.0 20.0)
           (-20.0 0.0)
  end
  begin
     id 25 
     name rhumerus
     direction -1 -4.48961e-011 -1.55672e-027  
     length 5.232   
     axis 180 30 90   XYZ
    dof rx ry rz
    limits (-90.0 60.0)
           (-90.0 90.0)
           (-90.0 90.0)
  end
  begin
     id 26 
     name rradius
     direction -1 -4.48963e-011 6.18178e-029   
     length 3.65641   
     axis 180 30 90   XYZ
    dof rx
    limits (-10.0 170.0)
  end
  begin
     id 27 
     name rwrist
     direction -1 -4.48982e-011 1.04136e-027   
     length 1.8282   
     axis -2.56395e-016 -90 -90   XYZ
    dof ry
    limits (-180.0 0.0)
  end
  begin
     id 28
     name rhand
     direction -1 -4.48929e-011 2.07378e-027   
     length 0.656807   
     axis -1.32723e-015 -90 -90   XYZ
    dof rx rz
    limits (-90.0 90.0)
           (-45.0 45.0)
  end
  begin
     id 29
     name rfingers
     direction -1 -4.489e-011 4.13816e-027   
     length 0.529535   
     axis -2.6545e-015 -90 -90   XYZ
    dof rx
    limits (0.0 90.0)
  end
  begin
     id 30
     name rthumb
     direction -0.707107 -6.34843e-011 0.707107   
     length 0.760309   
     axis -90 -45 -5.05613e-014   XYZ
    dof rx rz
    limits (-45.0 45.0)
           (-45.0 45.0)
  end
:hierarchy
  begin
    root lhipjoint rhipjoint lowerback
    lhipjoint lfemur
    lfemur ltibia
    ltibia lfoot
    lfoot ltoes
    rhipjoint rfemur
    rfemur rtibia
    rtibia rfoot
    rfoot rtoes
    lowerback upperback
    upperback thorax
    thorax lowerneck lclavicle rclavicle
    lowerneck upperneck
    upperneck head
    lclavicle lhumerus
    lhumerus lradius
    lradius lwrist
    lwrist lhand lthumb
    lhand lfingers
    rclavicle rhumerus
    rhumerus rradius
    rradius rwrist
    rwrist rhand rthumb
    rhand rfingers
  end

#!OML:ASF H:\ManfredETheater\Project 1\Capture day 1\Session 1\subject.ASF
:FULLY-SPECIFIED
:DEGREES
1
root 2.92405 15.9981 -48.6193 29.6228 -13.7442 -5.16767
lowerback 11.4312 2.45779 5.81287
upperback -2.24604 4.30109 2.05084
thorax -8.56872 1.84178 -1.86915
lowerneck -21.2858 1.02561 -0.301339
upperneck 1.18923 1.80594 -5.25738
head 3.73924 0.55678 -1.43783
rclavicle 4.57205e-014 7.15625e-014
rhumerus -37.1019 23.0925 -104.555
rradius 102.33
rwrist -0.832239
rhand -25.2056 5.1626
rfingers 7.12502
rthumb 1.31298 -24.8131
lclavicle 4.57205e-014 7.15625e-014
lhumerus -57.4332 -13.4462 100.101
lradius 93.7738
lwrist 12.4128
lhand -25.3713 -18.3012
lfingers 7.12502
lthumb 1.15297 11.6754
rfemur -3.96936 -5.06275 22.7255
rtibia 36.7237
rfoot -6.07109 7.1479
rtoes -13.3702
lfemur -63.1759 5.98609 -24.0235
ltibia 81.0825
lfoot -26.1386 -9.99534
ltoes -3.07456
2
root 2.88745 16.0226 -48.3453 29.5559 -13.3994 -4.65037
lowerback 11.6826 2.30491 5.30919
upperback -2.23069 4.03368 1.94885
thorax -8.7397 1.72996 -1.66359
lowerneck -21.4308 0.996309 -0.357469
upperneck 1.15584 1.7626 -4.99767
head 3.74377 0.549564 -1.35159
rclavicle -2.22639e-014 -1.66979e-014
rhumerus -38.5404 21.6506 -104.057
rradius 101.783
rwrist -0.65539
rhand -25.2611 5.01585
rfingers 7.12502
rthumb 1.25938 -24.9602
lclavicle -2.22639e-014 -1.66979e-014
lhumerus -56.6451 -13.8969 100.467
lradius 94.0148
lwrist 12.4882
lhand -25.648 -18.7246
lfingers 7.12502
lthumb 0.885759 11.2533
rfemur -6.84424 -5.51922 22.2221
rtibia 42.4194
rfoot -5.3015 7.08927
rtoes -20.8489
lfemur -61.5191 5.82966 -24.5078
ltibia 80.207
lfoot -26.7824 -10.372
ltoes -1.91521
3
root 2.86355 16.0074 -48.0907 29.3508 -12.9069 -3.98244
lowerback 12.0394 2.05076 4.92133
upperback -2.19389 3.64936 1.82692
thorax -8.94354 1.55492 -1.52354
lowerneck -21.4454 0.974654 -0.392706
upperneck 1.02889 1.72446 -4.83047
head 3.70219 0.543032 -1.29708
rclavicle -1.47101e-014 4.77083e-015
rhumerus -40.0184 20.0967 -103.471
rradius 100.794
rwrist -0.719164
rhand -25.6894 4.66679
rfingers 7.12502
rthumb 0.845745 -25.3113
lclavicle -1.47101e-014 4.77083e-015
lhumerus -55.5475 -14.3872 100.804
lradius 94.4378
lwrist 12.7494
lhand -25.7969 -18.953
lfingers 7.12502
lthumb 0.741903 11.0254
rfemur -9.4636 -6.02942 21.622
rtibia 47.9242
rfoot -4.46432 6.0926
rtoes -21.1947
lfemur -59.6315 5.41047 -25.1111
ltibia 79.3742
lfoot -27.6685 -9.95095
ltoes -3.50608
4
root 2.82593 16.0001 -47.8358 29.0723 -12.5866 -3.20697
lowerback 12.344 1.84617 4.15358
upperback -2.07586 3.26127 1.70728
thorax -9.04459 1.40303 -1.15948
lowerneck -21.3837 1.03057 -0.270954
upperneck 0.774 1.75665 -4.85734
head 3.61582 0.563975 -1.32193
rclavicle -1.55052e-014 -5.56597e-014
rhumerus -41.3692 18.3814 -102.727
rradius 99.3006
rwrist -0.890025
rhand -25.8985 4.40851
rfingers 7.12502
rthumb 0.643786 -25.5703
lclavicle -1.55052e-014 -5.56597e-014
lhumerus -54.2186 -14.8742 101.083
lradius 95.2888
lwrist 12.9078
lhand -25.6237 -18.8459
lfingers 7.12502
lthumb 0.909198 11.1319
rfemur -11.9109 -6.3914 20.9429
rtibia 52.8967
rfoot -4.70296 4.52986
rtoes -25.2369
lfemur -57.7837 5.09282 -25.7463
ltibia 78.4816
lfoot -28.0647 -10.5165
ltoes -0.169757
5
root 2.7798 16.0637 -47.5462 28.7166 -12.3109 -2.0851
lowerback 12.6112 1.56852 3.07452
upperback -1.90235 2.70964 1.49426
thorax -9.06949 1.18837 -0.681149
lowerneck -21.3579 1.1569 -0.122674
upperneck 0.396239 1.86974 -4.87802
head 3.49855 0.627026 -1.34198
rclavicle 1.51076e-014 -1.03368e-014
rhumerus -42.4113 16.1621 -101.845
rradius 96.4153
rwrist -1.45027
rhand -26.7126 4.13656
rfingers 7.12502
rthumb -0.142552 -25.8431
lclavicle 1.51076e-014 -1.03368e-014
lhumerus -51.9588 -15.1741 101.023
lradius 96.7049
lwrist 12.9322
lhand -25.5341 -18.9741
lfingers 7.12502
lthumb 0.995763 11.0033
rfemur -14.7458 -6.69695 19.9991
rtibia 57.5705
rfoot -5.85905 2.36791
rtoes -20.0565
lfemur -56.0922 4.52323 -26.6677
ltibia 77.4446
lfoot -28.012 -11.2383
ltoes 0.482081
6
root 2.74273 16.074 -47.2818 28.5204 -11.8961 -1.25166
lowerback 12.8619 1.30002 2.38919
upperback -1.81149 2.23648 1.34623
thorax -9.14737 0.991047 -0.365337
lowerneck -21.3215 1.21895 -0.070595
upperneck 0.12553 1.91999 -4.79332
head 3.40914 0.6626 -1.31956
rclavicle 3.26007e-014 -2.22639e-014
rhumerus -43.6667 14.2538 -100.879
rradius 94.3376
rwrist -1.75011
rhand -27.1967 4.00618
rfingers 7.12502
rthumb -0.610089 -25.9727
lclavicle 3.26007e-014 -2.22639e-014
lhumerus -50.1379 -15.5816 101.078
lradius 97.8221
lwrist 12.9533
lhand -25.5616 -19.0355
lfingers 7.12502
lthumb 0.969131 10.9421
rfemur -17.409 -7.16225 19.2841
rtibia 62.0419
rfoot -6.46412 0.960445
rtoes -21.2183
lfemur -54.4206 4.01574 -27.2945
ltibia 76.4759
lfoot -28.2372 -11.6734
ltoes 1.39467
7
root 2.70611 16.084 -47.017 28.3747 -11.4158 -0.460542
lowerback 13.0751 1.00336 1.81028
upperback -1.73411 1.73982 1.2073
thorax -9.20736 0.77769 -0.0902137
lowerneck -21.2707 1.28138 -0.0378696
upperneck -0.147974 1.97376 -4.67689
head 3.31623 0.701644 -1.28402
rclavicle -3.45885e-014 2.90226e-014
rhumerus -44.9486 12.2769 -99.7832
rradius 92.1024
rwrist -2.03825
rhand -27.7534 4.02308
rfingers 7.12502
rthumb -1.14773 -25.9536
lclavicle -3.45885e-014 2.90226e-014
lhumerus -48.1161 -15.9824 101.045
lradius 99.118
lwrist 12.9479
lhand -25.6288 -19.042
lfingers 7.12502
lthumb 0.904235 10.9358
rfemur -20.2022 -7.64715 18.6434
rtibia 66.2933
rfoot -7.40175 -0.550633
rtoes -22.7242
lfemur -52.7833 3.43566 -27.8303
ltibia 75.4684
lfoot -28.4325 -12.0563
ltoes 1.89573
8
root 2.66986 16.0935 -46.7509 28.2968 -10.8664 0.248112
lowerback 13.2441 0.686009 1.37228
upperback -1.67787 1.23776 1.08904
thorax -9.25507 0.555386 0.132378
lowerneck -21.2302 1.33263 -0.0421683
upperneck -0.393795 2.02072 -4.50963
head 3.23204 0.73915 -1.2275
rclavicle -3.57812e-015 -9.14409e-015
rhumerus -46.3186 10.2678 -98.5569
rradius 89.8637
rwrist -2.22205
rhand -28.4066 4.20218
rfingers 7.12502
rthumb -1.7786 -25.7702
lclavicle -3.57812e-015 -9.14409e-015
lhumerus -45.9254 -16.3766 100.933
lradius 100.583
lwrist 12.9335
lhand -25.7456 -19.0204
lfingers 7.12502
lthumb 0.791407 10.9579
rfemur -23.1786 -8.14254 18.121
rtibia 70.3677
rfoot -8.61535 -2.07294
rtoes -24.7357
lfemur -51.1756 2.80405 -28.2393
ltibia 74.4516
lfoot -28.6553 -12.3826
ltoes 2.08756
9
root 2.6343 16.1019 -46.4827 28.2824 -10.2387 0.857867
lowerback 13.3795 0.351355 1.098
upperback -1.64804 0.740867 0.999253
thorax -9.30507 0.328118 0.29447
lowerneck -21.2102 1.36305 -0.0916231
upperneck -0.590894 2.05102 -4.289
head 3.1642 0.76988 -1.14867
rclavicle -7.15625e-015 2.50469e-014
rhumerus -47.856 8.2677 -97.2015
rradius 87.8089
rwrist -2.29225
rhand -29.146 4.51612
rfingers 7.12502
rthumb -2.49271 -25.4491
lclavicle -7.15625e-015 2.50469e-014
lhumerus -43.5992 -16.7643 100.758
lradius 102.209
lwrist 12.9522
lhand -25.9158 -18.9946
lfingers 7.12502
lthumb 0.627098 10.9843
rfemur -26.324 -8.65187 17.7359
rtibia 74.2094
rfoot -9.89659 -3.55762
rtoes -26.6931
lfemur -49.5634 2.12817 -28.5069
ltibia 73.3793
lfoot -28.8594 -12.6507
ltoes 2.0418
10
root 2.59925 16.1086 -46.2113 28.3142 -9.54869 1.37475
lowerback 13.4855 0.0119913 0.967653
upperback -1.6365 0.263702 0.941037
thorax -9.35437 0.104012 0.406719
lowerneck -21.231 1.36821 -0.178548
upperneck -0.731216 2.05873 -4.03851
head 3.11849 0.789317 -1.05647
rclavicle -5.76476e-015 -1.15295e-014
rhumerus -49.6154 6.32786 -95.7203
rradius 86.1167
rwrist -2.30401
rhand -29.8781 4.96512
rfingers 7.12502
rthumb -3.19977 -24.9906
lclavicle -5.76476e-015 -1.15295e-014
lhumerus -41.1631 -17.1463 100.54
lradius 103.998
lwrist 13.0288
lhand -26.1225 -18.9905
lfingers 7.12502
lthumb 0.427395 10.9888
rfemur -29.6302 -9.17503 17.4834
rtibia 77.7825
rfoot -11.1584 -5.03132
rtoes -28.9641
lfemur -47.909 1.43113 -28.6487
ltibia 72.2351
lfoot -29.1144 -12.8255
ltoes 1.63521
11
root 2.56369 16.1176 -45.9335 28.3615 -8.83692 1.81466
lowerback 13.5803 -0.314006 0.92586
upperback -1.63325 -0.178174 0.914837
thorax -9.4052 -0.106614 0.497081
lowerneck -21.2981 1.35242 -0.285536
upperneck -0.81622 2.04717 -3.79468
head 3.09617 0.797264 -0.96464
rclavicle 9.93923e-015 -2.5842e-014
rhumerus -51.6401 4.51373 -94.1287
rradius 84.9293
rwrist -2.36558
rhand -30.5274 5.48069
rfingers 7.12502
rthumb -3.82677 -24.4647
lclavicle 9.93923e-015 -2.5842e-014
lhumerus -38.6549 -17.5115 100.303
lradius 105.957
lwrist 13.1673
lhand -26.327 -19.0331
lfingers 7.12502
lthumb 0.229913 10.9465
rfemur -33.0335 -9.68744 17.3261
rtibia 81.0385
rfoot -12.1925 -6.40025
rtoes -30.239
lfemur -46.2004 0.76081 -28.7014
ltibia 71.0023
lfoot -29.336 -13.0229
ltoes 1.29923
12
root 2.52725 16.1284 -45.6488 28.4 -8.13207 2.21597
lowerback 13.6724 -0.619745 0.905034
upperback -1.63316 -0.586461 0.922317
thorax -9.45734 -0.300999 0.605749
lowerneck -21.3953 1.32729 -0.391838
upperneck -0.861807 2.02845 -3.6072
head 3.0913 0.797595 -0.890915
rclavicle 2.04748e-014 3.57812e-015
rhumerus -53.9437 2.91085 -92.4632
rradius 84.3353
rwrist -2.58899
rhand -31.0725 5.97491
rfingers 7.12502
rthumb -4.35312 -23.9603
lclavicle 2.04748e-014 3.57812e-015
lhumerus -36.1246 -17.8277 100.076
lradius 108.097
lwrist 13.3519
lhand -26.5397 -19.1546
lfingers 7.12502
lthumb 0.0245054 10.8251
rfemur -36.4961 -10.1811 17.2153
rtibia 83.9356
rfoot -13.0261 -7.61671
rtoes -30.8928
lfemur -44.4088 0.130789 -28.7151
ltibia 69.6629
lfoot -29.5067 -13.255
ltoes 1.09122
13
root 2.48945 16.1422 -45.3554 28.4185 -7.47128 2.60767
lowerback 13.7512 -0.898911 0.848127
upperback -1.63002 -0.963136 0.957638
thorax -9.49673 -0.477287 0.758703
lowerneck -21.5074 1.31075 -0.465547
upperneck -0.893046 2.01959 -3.51964
head 3.09514 0.796994 -0.852555
rclavicle 1.2921e-014 2.78299e-015
rhumerus -56.5 1.58245 -90.7659
rradius 84.3457
rwrist -3.09479
rhand -31.4255 6.48324
rfingers 7.12502
rthumb -4.69397 -23.4448
lclavicle 1.2921e-014 2.78299e-015
lhumerus -33.629 -18.0758 99.8748
lradius 110.425
lwrist 13.5431
lhand -26.7198 -19.3103
lfingers 7.12502
lthumb -0.14948 10.6694
rfemur -39.9827 -10.6369 17.1058
rtibia 86.429
rfoot -13.6856 -8.6602
rtoes -31.0624
lfemur -42.5198 -0.439023 -28.7336
ltibia 68.1929
lfoot -29.5906 -13.5677
ltoes 1.11934
14
root 2.4501 16.1604 -45.0518 28.4133 -6.87544 3.00612
lowerback 13.8051 -1.15756 0.718735
upperback -1.62448 -1.32251 1.0228
thorax -9.51529 -0.640454 0.981115
lowerneck -21.6101 1.32445 -0.49341
upperneck -0.920139 2.04642 -3.55472
head 3.10194 0.807392 -0.856614
rclavicle 1.82882e-014 3.18055e-015
rhumerus -59.2476 0.587465 -89.0897
rradius 84.8948
rwrist -3.92186
rhand -31.5556 6.97171
rfingers 7.12502
rthumb -4.81965 -22.9535
lclavicle 1.82882e-014 3.18055e-015
lhumerus -31.2348 -18.2315 99.7088
lradius 112.937
lwrist 13.6935
lhand -26.8928 -19.4873
lfingers 7.12502
lthumb -0.316505 10.4922
rfemur -43.428 -11.0398 16.9589
rtibia 88.4799
rfoot -14.2619 -9.47322
rtoes -31.0295
lfemur -40.5239 -0.940459 -28.7799
ltibia 66.5689
lfoot -29.5584 -13.9676
ltoes 1.32556
